name Walk4.mot
datacolumns 19
datarows 15
range 2.48500000 2.55500000
endheader

                time	   L_ground_force_vx	   L_ground_force_vy	   L_ground_force_vz	   L_ground_force_px	   L_ground_force_py	   L_ground_force_pz	   R_ground_force_vx	   R_ground_force_vy	   R_ground_force_vz	   R_ground_force_px	   R_ground_force_py	   R_ground_force_pz	   L_ground_torque_x	   L_ground_torque_y	   L_ground_torque_z	   R_ground_torque_x	   R_ground_torque_y	   R_ground_torque_z	
          2.48500000	         -0.00000000	          0.00000000	         -0.00000000	         -0.00000000	          0.00000000	         -0.00000000	         30.61195085	        136.68282780	         25.12403730	          0.53139370	          0.00000000	          0.10441608	          0.00000000	         -0.00000000	          0.00000000	          0.00000000	         -7.94247820	          0.00000000	
          2.49000000	         -0.00000000	         -0.00000000	         -0.00000000	         -0.00000000	          0.00000000	         -0.00000000	         23.82719668	        104.38344746	         22.13015451	          0.50467513	          0.00000000	          0.09905860	          0.00000000	         -0.00000000	          0.00000000	          0.00000000	         -6.40799279	          0.00000000	
          2.49500000	         -0.00000000	         -0.00000000	         -0.00000000	         -0.00000000	          0.00000000	         -0.00000000	         17.74923798	         76.83365066	         18.84197380	          0.46894217	          0.00000000	          0.09198987	          0.00000000	         -0.00000000	          0.00000000	          0.00000000	         -4.99945425	          0.00000000	
          2.50000000	         -0.00000000	         -0.00000000	          0.00000000	         -0.00000000	          0.00000000	         -0.00000000	         12.49107445	         53.89786125	         15.45294871	          0.42383711	          0.00000000	          0.08311635	          0.00000000	         -0.00000000	          0.00000000	          0.00000000	         -3.74266384	          0.00000000	
          2.50500000	         -0.00000000	         -0.00000000	          0.00000000	         -0.00000000	          0.00000000	         -0.00000000	          8.12776576	         35.30639603	         12.15069121	          0.36999883	          0.00000000	          0.07253699	          0.00000000	         -0.00000000	          0.00000000	          0.00000000	         -2.65749847	          0.00000000	
          2.51000000	         -0.00000000	         -0.00000000	          0.00000000	          0.00000000	          0.00000000	          0.00000000	          4.67852986	         20.71074804	          9.09934153	          0.30957690	          0.00000000	          0.06066951	          0.00000000	         -0.00000000	          0.00000000	          0.00000000	         -1.75581592	          0.00000000	
          2.51500000	         -0.00000000	         -0.00000000	          0.00000000	          0.00000000	          0.00000000	          0.00000000	          2.09500054	          9.72647109	          6.42582151	          0.24683123	          0.00000000	          0.04835485	          0.00000000	         -0.00000000	          0.00000000	          0.00000000	         -1.03916113	          0.00000000	
          2.52000000	         -0.00000000	         -0.00000000	          0.00000000	          0.00000000	          0.00000000	          0.00000000	          0.27253286	          1.91329767	          4.20315554	          0.18707574	          0.00000000	          0.03663407	          0.00000000	         -0.00000000	          0.00000000	          0.00000000	         -0.49740156	          0.00000000	
          2.52500000	         -0.00000000	         -0.00000000	          0.00000000	          0.00000000	          0.00000000	          0.00000000	         -0.91773441	         -3.24845779	          2.44538413	          0.13396027	          0.00000000	          0.02622045	          0.00000000	         -0.00000000	          0.00000000	          0.00000000	         -0.11064320	          0.00000000	
          2.53000000	         -0.00000000	         -0.00000000	          0.00000000	          0.00000000	          0.00000000	          0.00000000	         -1.60844806	         -6.30167785	          1.12475906	          0.08930371	          0.00000000	          0.01746868	          0.00000000	         -0.00000000	          0.00000000	          0.00000000	          0.14612799	          0.00000000	
          2.53500000	         -0.00000000	         -0.00000000	          0.00000000	          0.00000000	          0.00000000	          0.00000000	         -1.92418055	         -7.76126220	          0.18891294	          0.05360348	          0.00000000	          0.01047478	          0.00000000	         -0.00000000	          0.00000000	          0.00000000	          0.29923342	          0.00000000	
          2.54000000	         -0.00000000	         -0.00000000	          0.00000000	          0.00000000	          0.00000000	          0.00000000	         -1.97447426	         -8.08344337	         -0.42616777	          0.02647023	          0.00000000	          0.00516130	          0.00000000	         -0.00000000	          0.00000000	          0.00000000	          0.37375122	          0.00000000	
          2.54500000	         -0.00000000	         -0.00000000	          0.00000000	          0.00000000	          0.00000000	          0.00000000	         -1.85056961	         -7.65074928	         -0.78690240	          0.00697672	          0.00000000	          0.00134567	          0.00000000	         -0.00000000	          0.00000000	          0.00000000	          0.39197884	          0.00000000	
          2.55000000	         -0.00000000	         -0.00000000	          0.00000000	          0.00000000	          0.00000000	          0.00000000	         -1.62475427	         -6.76818919	         -0.95600007	         -0.00607586	          0.00000000	         -0.00120765	          0.00000000	          0.00000000	          0.00000000	          0.00000000	          0.37266707	          0.00000000	
          2.55500000	          0.00000000	         -0.00000000	          0.00000000	          0.00000000	          0.00000000	          0.00000000	         -1.35144485	         -5.66693857	         -0.98883108	         -0.01396570	          0.00000000	         -0.00274953	          0.00000000	          0.00000000	          0.00000000	          0.00000000	          0.33080935	          0.00000000	
